<?xml version="1.0" encoding="UTF-8"?>
<svg id="Layer_1" data-name="Layer 1" xmlns="http://www.w3.org/2000/svg" viewBox="0 0 16 16">
  <defs>
    <style>
      .cls-1 {
        fill: #321575;
      }

      .cls-1, .cls-2 {
        stroke-width: 0px;
      }

      .cls-2 {
        fill: #fff;
      }
    </style>
  </defs>
  <rect class="cls-1" x=".18" y=".29" width="15.64" height="15.42" rx="3.87" ry="3.87"/>
  <path class="cls-2" d="M2.09,8.1c0,.2.12.39.35.46l2.75.83.07.03c.71.35.95,1.11,1.32,1.77,0,.02.02.04.03.05l1.05,2.58c.17.42.77.41.92-.02l.89-2.51s.51-1.62,1.27-2.01c.02,0,2.78-.9,2.78-.9.17-.06.35-.24.38-.39v-.28c-.05-.14-.15-.27-.32-.33l-2.84-.96-.05-.02c-.78-.36-.94-1.02-1.31-1.68-.01-.02-.02-.04-.03-.06l-.98-2.48c-.17-.42-.76-.42-.92.01l-.96,2.62s-.01.04-.02.05c-.35.67-.56,1.44-1.26,1.82-.02.01-.04.02-.07.03l-2.72.92c-.22.08-.34.27-.34.47"/>
</svg>