<?xml version="1.0" encoding="UTF-8"?>
<svg id="Layer_2" data-name="Layer 2" xmlns="http://www.w3.org/2000/svg" viewBox="0 0 32 32">
  <defs>
    <style>
      .cls-1 {
        fill: #321575;
      }

      .cls-1, .cls-2 {
        stroke-width: 0px;
      }

      .cls-2 {
        fill: #fff;
      }
    </style>
  </defs>
  <rect class="cls-1" x=".14" y="2.64" width="31.72" height="27.28" rx="3.87" ry="3.87"/>
  <g>
    <path class="cls-2" d="M16.21,7.6c-4.61,0-8.35,3.89-8.35,8.68,0,.71.15,1.51.3,2.16.5-.13.89-.29,1.48-.45-.05-.23-.09-.47-.11-.71-.38-3.87,2.4-7.69,6.24-8.02h0c2.11-.23,4.16.6,5.58,2.14-1.3-1.13-3.09-1.6-4.86-1.12-2.88.79-4.6,3.85-3.86,6.85.89-.29,1.81-.63,2.76-1,.21-.09.95-.46,1.12-1.13.04-.22.04-.45.07-.67,0-.01,0-.02,0-.04v-1.66c0-.27.33-.39.5-.19l1.01,1.19s.02.02.03.03c.33.29.54.63,1.03.68h.03l1.72-.04c.1,0,.18.05.23.12l.06.15c0,.09-.05.23-.13.29,0,0-1.32,1.06-1.32,1.07-.34.37-.29,1.37-.29,1.38v1.59c0,.27-.31.4-.48.2l-1.07-1.23s-.02-.02-.02-.03c-.17-.15-.32-.32-.49-.46-.7-.53-2.27.1-2.27.1h0c-.71.27-1.4.52-2.08.75,1.12,2.35,3.71,3.63,6.24,2.93h0c2.03-.56,3.49-2.24,3.91-4.24-.27,2.82-2.19,5.3-4.98,6.07-.66.18-1.32.25-1.97.23-2.65.04-5.28-1.67-6.33-4.13-.51.21-.91.34-1.4.47v.03c1.26,3.15,4.24,5.37,7.73,5.37,4.61,0,8.35-3.89,8.35-8.68s-3.74-8.68-8.35-8.68Z"/>
    <path class="cls-2" d="M8.19,18.43c-2.02.69-4.36,1.53-5.43,1.08-.39-.16-.3-.74-.2-1.18.18-.8.87-1.89,1.61-2.57-2.19,1.61-3,2.83-3.07,3.9.08,1.94,3.18,1.49,7.44-.06"/>
    <path class="cls-2" d="M24.32,9.36s3.27-.7,4.18.25c.12.12.24.42.24.6,0,.6-.28,1.14-1.33,1.86-.98.74-2.54,1.68-2.54,1.68,0,0,3.2-.71,5.29-2.51.05-.04.92-.7.83-1.51,0-1.75-2.72-1.58-6.67-.37h0Z"/>
  </g>
</svg>