<?xml version="1.0" encoding="UTF-8"?>
<svg xmlns="http://www.w3.org/2000/svg" version="1.1" viewBox="0 0 200 113.1">
  <defs>
    <style>
      .cls-1 {
        fill: #100128;
      }
    </style>
  </defs>
  <!-- Generator: Adobe Illustrator 28.6.0, SVG Export Plug-In . SVG Version: 1.2.0 Build 709)  -->
  <g>
    <g id="Layer_1">
      <g>
        <path class="cls-1" d="M124.5,92.7c-18,4.5-36.4-3.8-44.4-19,6.7-2.1,13.6-4.4,20.6-6.9l6-.3c0,0,.2,0,.3,0,3.2.3,5.2,2.8,7.5,4.7,0,0,.1,0,.2.2l7.6,8c1.2,1.3,3.5.5,3.5-1.3v-10.3c0,0-.3-6.5,2-9,0,0,9.4-6.9,9.4-6.9.6-.5,1-1.3.9-1.9l-.4-1c-.4-.5-.9-.8-1.7-.8l-12.2.3c0,0-.2,0-.2,0-3.5-.3-5-2.5-7.3-4.4,0,0-.1-.1-.2-.2l-7.2-7.7c-1.2-1.3-3.5-.5-3.5,1.2v10.8c0,0,0,.2,0,.2-.4,2.9-.1,6-2.3,8.2,0,0-.2.1-.2.2l-2.7,2c-7.8,2.9-15.5,5.4-22.9,7.6-5.3-19.4,7-39.2,27.5-44.3,12.5-3.1,25.3,0,34.6,7.2-10-10-24.6-15.3-39.7-13.8h0c-.2,0-.4,0-.7,0,0,0,0,0-.1,0-26.9,2.6-46.2,27-43.6,51.9.2,1.6.4,3.1.8,4.6-23,5.2-39.5,5.6-41.8,0-1.3-3.1,1.9-7.6,8.4-12.9C8,68.5,0,76.7,2,81.7c3,7.1,25.7,5.9,56.7-1.9,7.5,16,25.3,26.5,44.2,26.3,4.6.2,9.3-.3,13.9-1.5,19.8-5,33.5-21,35.4-39.3-3,12.9-13.4,23.8-27.8,27.4Z"/>
        <path class="cls-1" d="M150,16.9s20.8-3.7,27.2,1.9c.8.7,1.4,2.3,1.4,3.4,0,3.6-2.8,7.4-9,11.3-7,4.4-15.6,9.6-15.6,9.6,0,0,20.7-3.2,38.8-17,.3-.3,4.3-3.9,4.7-7.2,1.2-10.3-19.4-9.5-47.4-2.2Z"/>
      </g>
    </g>
  </g>
</svg>