<?xml version="1.0" encoding="utf-8"?>
<!-- Generator: Adobe Illustrator 28.1.0, SVG Export Plug-In . SVG Version: 6.00 Build 0)  -->
<svg version="1.1" id="Layer_1" xmlns="http://www.w3.org/2000/svg" xmlns:xlink="http://www.w3.org/1999/xlink" x="0px" y="0px"
	 viewBox="0 0 200 113.14" style="enable-background:new 0 0 200 113.14;" xml:space="preserve">
<style type="text/css">
	.st0{fill:#C7C0FF;}
</style>
<g>
	<path class="st0" d="M124.5,92.7c-18,4.51-36.4-3.8-44.38-19c6.67-2.08,13.55-4.39,20.58-6.93l6-0.32c0.1-0.01,0.21,0,0.31,0.01
		c3.21,0.32,5.17,2.79,7.5,4.7c0.06,0.05,0.12,0.1,0.18,0.16l7.6,7.98c1.23,1.3,3.51,0.46,3.5-1.28l-0.06-10.27
		c0-0.08-0.29-6.53,2.09-8.95c0.05-0.05,9.4-6.93,9.4-6.93c0.56-0.45,0.99-1.34,0.93-1.91l-0.4-0.99c-0.35-0.46-0.93-0.78-1.66-0.77
		l-12.21,0.26c-0.08,0-0.16,0-0.23-0.01c-3.48-0.31-5.01-2.48-7.33-4.38c-0.07-0.06-0.13-0.12-0.19-0.18l-7.17-7.71
		c-1.22-1.31-3.5-0.5-3.51,1.24l-0.06,10.75c0,0.08-0.01,0.16-0.02,0.23c-0.4,2.89-0.13,5.97-2.3,8.23
		c-0.07,0.07-0.15,0.14-0.23,0.2l-2.67,2.01c-7.85,2.88-15.53,5.44-22.86,7.64c-5.26-19.39,6.98-39.21,27.46-44.35
		c12.54-3.14,25.28-0.06,34.55,7.24c-10.04-9.96-24.63-15.32-39.65-13.83l0-0.01c-0.22,0.02-0.43,0.05-0.65,0.07
		c-0.05,0.01-0.1,0.01-0.14,0.02C71.98,18.23,52.63,42.66,55.3,67.5c0.17,1.57,0.43,3.11,0.78,4.62
		c-23.02,5.19-39.47,5.57-41.8-0.07c-1.28-3.1,1.88-7.6,8.41-12.86C7.99,68.52-0.01,76.72,2.05,81.71
		c2.95,7.14,25.7,5.88,56.69-1.95c7.46,15.99,25.32,26.55,44.21,26.26c4.58,0.15,9.26-0.32,13.91-1.49
		c19.84-4.97,33.46-21.02,35.42-39.27C149.28,78.18,138.93,89.08,124.5,92.7z"/>
	<path class="st0" d="M149.98,16.93c0,0,20.77-3.73,27.21,1.94c0.84,0.74,1.35,2.34,1.35,3.43c0.02,3.61-2.8,7.4-9.04,11.34
		c-6.99,4.41-15.65,9.64-15.65,9.64s20.74-3.23,38.83-16.95c0.34-0.26,4.33-3.86,4.72-7.17C198.64,8.83,178.04,9.65,149.98,16.93z"
		/>
</g>
</svg>
