<?xml version="1.0" encoding="utf-8"?>
<!-- Generator: Adobe Illustrator 28.1.0, SVG Export Plug-In . SVG Version: 6.00 Build 0)  -->
<svg version="1.1" xmlns="http://www.w3.org/2000/svg" xmlns:xlink="http://www.w3.org/1999/xlink" x="0px" y="0px"
	 viewBox="0 0 207.2 114.5" style="enable-background:new 0 0 207.2 114.5;" xml:space="preserve">
<style type="text/css">
	.st0{fill:#321575;}
	.st1{display:none;}
	.st2{display:inline;}
	.st3{fill:#FFFFFF;}
</style>
<g id="Layer_6">
	<path class="st0" d="M96.2,64.2c0.3,0.7,1,1.3,2,1.3l11.6-0.6h0.3c3.2,0.3,5.1,2.9,7.4,4.9c0.1,0.1,0.1,0.1,0.2,0.2l7.6,8.4
		c1.2,1.4,3.5,0.5,3.5-1.3l-0.1-10.8c0-0.1-0.3-6.8,2.1-9.4c0.1-0.1,9.3-7.3,9.3-7.3c0.6-0.5,1-1.4,0.9-2l-0.4-1
		c-0.4-0.5-0.9-0.8-1.6-0.8L126.8,46h-0.2c-3.4-0.3-5-2.6-7.3-4.6c-0.1-0.1-0.1-0.1-0.2-0.2l-7.1-8.1c-1.2-1.4-3.5-0.5-3.5,1.3
		l-0.1,11.3c0,0.1,0,0.2,0,0.2c-0.4,3-0.1,6.3-2.3,8.6c-0.1,0.1-0.1,0.1-0.2,0.2L96.8,62C96.1,62.6,95.9,63.5,96.2,64.2"/>
	<path class="st0" d="M121.5,49.3c-0.7,0.3-1.4,0.6-2.1,0.9c-4.8,2.1-9.7,4.1-14.8,6.1c-44.2,17.3-83,23.7-86.7,14.4
		c-1.3-3.2,1.9-8,8.4-13.5C11.7,67,3.7,75.6,5.8,80.8C10,91.7,55.6,84,107.5,63.7c5.1-2,10.1-4,14.9-6.1c0.5-0.2,1-0.5,1.6-0.7"/>
	<path class="st0" d="M127.4,92.4c-20.4,5.4-41.4-6.8-46.8-27.2c-5.4-20.4,6.8-41.4,27.2-46.8c12.5-3.3,25.1-0.1,34.3,7.6
		c-11.6-12.1-29.3-17.8-46.7-13.2C70,19.5,54.9,45.6,61.6,71s32.8,40.6,58.2,33.8c19.7-5.2,33.2-22.1,35.2-41.2
		C152,77.1,141.7,88.6,127.4,92.4C127.4,92.4,127.4,92.4,127.4,92.4z"/>
	<path class="st0" d="M102.7,11.4c-27.1,2.3-46.7,28.2-44,54.5c2.6,25.9,28.3,44,53.9,39.8c19.8-3.2,36.4-16.2,40.1-35.2
		c-4.2,13.2-17.1,21.2-31.5,23.5c-20.6,3.3-40-11-43.4-32c-2.9-17.8,6.7-34.6,22.1-41.4"/>
	<path class="st0" d="M152.7,12.9c0,0,20.6-3.9,27,2c0.8,0.8,1.3,2.5,1.3,3.6c0,3.8-2.8,7.8-9,11.9c-6.9,4.6-15.5,10.1-15.5,10.1
		s20.6-3.4,38.6-17.8c0.3-0.3,4.3-4,4.7-7.5C201,4.4,180.6,5.2,152.7,12.9L152.7,12.9L152.7,12.9z"/>
</g>
<g id="Layer_2" class="st1">
	<g class="st2">
		<path class="st0" d="M254.8,180.8h-24c-2.1,0-3.9-1.7-3.9-3.9v-19.5c0-2.1,1.7-3.9,3.9-3.9h24c2.1,0,3.9,1.7,3.9,3.9v19.5
			C258.7,179.1,256.9,180.8,254.8,180.8z"/>
		<g>
			<path class="st3" d="M243,158.5c-4.6,0-8.4,3.9-8.4,8.7c0,0.7,0.1,1.5,0.3,2.2c0.5-0.1,0.9-0.3,1.5-0.5c0-0.2-0.1-0.5-0.1-0.7
				c-0.4-3.9,2.4-7.7,6.2-8l0,0c2.1-0.2,4.2,0.6,5.6,2.1c-1.3-1.1-3.1-1.6-4.9-1.1c-2.9,0.8-4.6,3.9-3.9,6.8c0.9-0.3,1.8-0.6,2.8-1
				c0.2-0.1,0.9-0.5,1.1-1.1c0-0.2,0-0.4,0.1-0.7c0,0,0,0,0,0l0-1.7c0-0.3,0.3-0.4,0.5-0.2l1,1.2c0,0,0,0,0,0c0.3,0.3,0.5,0.6,1,0.7
				c0,0,0,0,0,0l1.7,0c0.1,0,0.2,0,0.2,0.1l0.1,0.2c0,0.1-0.1,0.2-0.1,0.3c0,0-1.3,1.1-1.3,1.1c-0.3,0.4-0.3,1.4-0.3,1.4l0,1.6
				c0,0.3-0.3,0.4-0.5,0.2l-1.1-1.2c0,0,0,0,0,0c-0.2-0.1-0.3-0.3-0.5-0.5c-0.7-0.5-2.3,0.1-2.3,0.1l0,0c-0.7,0.3-1.4,0.5-2.1,0.8
				c1.1,2.3,3.7,3.6,6.2,2.9l0,0c2-0.6,3.5-2.2,3.9-4.2c-0.3,2.8-2.2,5.3-5,6.1c-0.7,0.2-1.3,0.3-2,0.2c-2.7,0-5.3-1.7-6.3-4.1
				c-0.5,0.2-0.9,0.3-1.4,0.5l0,0c1.3,3.2,4.2,5.4,7.7,5.4c4.6,0,8.4-3.9,8.4-8.7S247.6,158.5,243,158.5z"/>
			<path class="st3" d="M235,169.3c-2,0.7-4.4,1.5-5.4,1.1c-0.4-0.2-0.3-0.7-0.2-1.2c0.2-0.8,0.9-1.9,1.6-2.6
				c-2.2,1.6-3,2.8-3.1,3.9c0.1,1.9,3.2,1.5,7.4-0.1"/>
			<g>
				<path class="st3" d="M251.1,160.2c0,0,3.3-0.7,4.2,0.2c0.1,0.1,0.2,0.4,0.2,0.6c0,0.6-0.3,1.1-1.3,1.9c-1,0.7-2.5,1.7-2.5,1.7
					s3.2-0.7,5.3-2.5c0,0,0.9-0.7,0.8-1.5C257.8,158.9,255.1,159,251.1,160.2L251.1,160.2z"/>
			</g>
		</g>
	</g>
</g>
</svg>
