<?xml version="1.0" encoding="utf-8"?>
<!-- Generator: Adobe Illustrator 28.1.0, SVG Export Plug-In . SVG Version: 6.00 Build 0)  -->
<svg version="1.1" id="Layer_1" xmlns="http://www.w3.org/2000/svg" xmlns:xlink="http://www.w3.org/1999/xlink" x="0px" y="0px"
	 viewBox="0 0 200 113.14" style="enable-background:new 0 0 200 113.14;" xml:space="preserve">
<style type="text/css">
	.st0{fill:#C7C0FF;}
</style>
<g>
	<path class="st0" d="M123.57,92.7c-17.04,4.51-34.46-3.8-42.01-19c6.31-2.08,12.83-4.39,19.48-6.93l5.68-0.32
		c0.1-0.01,0.19,0,0.29,0.01c3.04,0.32,4.9,2.79,7.1,4.7c0.06,0.05,0.11,0.1,0.17,0.16l7.19,7.98c1.17,1.3,3.32,0.46,3.31-1.28
		l-0.06-10.27c0-0.08-0.27-6.53,1.98-8.95c0.05-0.05,8.9-6.93,8.9-6.93c0.53-0.45,0.94-1.34,0.88-1.91l-0.38-0.99
		c-0.34-0.46-0.88-0.78-1.57-0.77l-11.56,0.26c-0.07,0-0.15,0-0.22-0.01c-3.29-0.31-4.74-2.48-6.94-4.38
		c-0.06-0.06-0.12-0.12-0.18-0.18l-6.78-7.71c-1.15-1.31-3.32-0.5-3.32,1.24l-0.06,10.75c0,0.08-0.01,0.16-0.02,0.23
		c-0.38,2.89-0.12,5.97-2.18,8.23c-0.07,0.07-0.14,0.14-0.21,0.2l-2.53,2.01c-7.43,2.88-14.7,5.44-21.64,7.64
		c-4.98-19.39,6.6-39.21,25.99-44.35c11.87-3.14,23.93-0.06,32.7,7.24c-9.51-9.96-23.31-15.32-37.53-13.83l0-0.01
		c-0.21,0.02-0.41,0.05-0.62,0.07c-0.05,0.01-0.09,0.01-0.14,0.02C73.86,18.23,55.54,42.66,58.07,67.5
		c0.16,1.57,0.41,3.11,0.74,4.62c-21.79,5.19-37.36,5.57-39.56-0.07c-1.21-3.1,1.78-7.6,7.96-12.86
		C13.29,68.52,5.72,76.72,7.67,81.71c2.79,7.14,24.32,5.88,53.66-1.95c7.06,15.99,23.96,26.55,41.85,26.26
		c4.33,0.15,8.76-0.32,13.17-1.49c18.78-4.97,31.67-21.02,33.52-39.27C147.03,78.18,137.24,89.08,123.57,92.7z"/>
	<path class="st0" d="M147.69,16.93c0,0,19.66-3.73,25.76,1.94c0.8,0.74,1.27,2.34,1.28,3.43c0.02,3.61-2.65,7.4-8.56,11.34
		c-6.61,4.41-14.81,9.64-14.81,9.64s19.64-3.23,36.75-16.95c0.32-0.26,4.1-3.86,4.47-7.17C193.75,8.83,174.25,9.65,147.69,16.93z"/>
</g>
</svg>
