<?xml version="1.0" encoding="UTF-8"?>
<svg id="Layer_6" data-name="Layer 6" xmlns="http://www.w3.org/2000/svg" viewBox="0 0 207.19 114.54">
  <defs>
    <style>
      .cls-1 {
        fill: #321575;
        stroke-width: 0px;
      }
    </style>
  </defs>
  <path class="cls-1" d="M96.16,64.23c.29.74,1.01,1.31,1.96,1.26l11.58-.64h.31c3.19.34,5.14,2.93,7.45,4.93.06.05.12.11.17.17l7.55,8.38c1.23,1.36,3.48.49,3.47-1.35l-.06-10.77c0-.09-.29-6.85,2.08-9.39.05-.06,9.34-7.27,9.34-7.27.55-.47.99-1.41.93-2l-.4-1.04c-.35-.49-.93-.82-1.65-.81l-12.12.27h-.23c-3.45-.32-4.97-2.6-7.28-4.6-.07-.06-.13-.12-.19-.19l-7.12-8.09c-1.21-1.37-3.48-.53-3.49,1.31l-.06,11.27c0,.08,0,.16-.02.24-.4,3.03-.13,6.26-2.28,8.63-.07.08-.14.14-.22.21l-9.07,7.22c-.75.6-.9,1.5-.63,2.25"/>
  <path class="cls-1" d="M121.53,49.28c-.7.31-1.41.63-2.12.94-4.75,2.08-9.69,4.13-14.79,6.12-44.22,17.3-83.03,23.74-86.69,14.38-1.27-3.25,1.87-7.98,8.35-13.49-14.61,9.78-22.55,18.38-20.5,23.62,4.25,10.86,49.8,3.19,101.73-17.12,5.11-2,10.1-4.05,14.93-6.13.52-.22,1.03-.45,1.55-.67"/>
  <path class="cls-1" d="M127.38,92.38c-20.44,5.41-41.39-6.77-46.81-27.2-5.41-20.44,6.77-41.39,27.2-46.81,12.46-3.3,25.1-.06,34.31,7.59-11.59-12.15-29.27-17.78-46.65-13.18-25.41,6.73-40.55,32.78-33.82,58.19,6.73,25.41,32.78,40.55,58.19,33.82,19.7-5.22,33.23-22.06,35.17-41.2-2.99,13.55-13.26,24.99-27.6,28.79h.01Z"/>
  <path class="cls-1" d="M102.71,11.44c-27.11,2.28-46.73,28.17-44.05,54.49,2.64,25.94,28.33,43.96,53.9,39.85,19.83-3.19,36.41-16.19,40.12-35.15-4.21,13.25-17.09,21.19-31.52,23.51-20.57,3.31-39.98-11.04-43.36-32.05-2.86-17.76,6.66-34.59,22.09-41.38"/>
  <path class="cls-1" d="M152.69,12.88s20.63-3.91,27.02,2.04c.84.78,1.34,2.45,1.34,3.59.02,3.79-2.79,7.76-8.98,11.89-6.94,4.63-15.54,10.11-15.54,10.11,0,0,20.6-3.39,38.56-17.79.34-.27,4.3-4.05,4.69-7.52,1.22-10.84-19.23-9.98-47.1-2.33h.01Z"/>
</svg>